<svg width="22" height="21" viewBox="0 0 22 21" fill="none" xmlns="http://www.w3.org/2000/svg">
<path d="M10.75 13.6631C10.1535 13.6638 9.58162 13.9011 9.15982 14.3229C8.73802 14.7447 8.50074 15.3166 8.5 15.9131V20.6631H13V15.9131C12.9993 15.3166 12.762 14.7447 12.3402 14.3229C11.9184 13.9011 11.3465 13.6638 10.75 13.6631Z" fill="#BA0B74"/>
<path d="M20.0928 6.42675L13.0923 0.82617C12.4286 0.291528 11.602 0 10.7498 0C9.89753 0 9.07092 0.291528 8.40724 0.82617L1.40772 6.42675C0.967527 6.77705 0.612252 7.22236 0.368476 7.72936C0.124701 8.23636 -0.00126324 8.79193 9.55032e-06 9.35449V16.9131C0.00117932 17.9073 0.396643 18.8604 1.09965 19.5634C1.80266 20.2664 2.75581 20.6619 3.75001 20.6631H7.00001V15.9131C7.00001 14.9185 7.3951 13.9647 8.09836 13.2614C8.80162 12.5582 9.75545 12.1631 10.75 12.1631C11.7446 12.1631 12.6984 12.5582 13.4017 13.2614C14.1049 13.9647 14.5 14.9185 14.5 15.9131V20.6631H17.75C18.7442 20.6619 19.6974 20.2664 20.4004 19.5634C21.1034 18.8604 21.4988 17.9073 21.5 16.9131V9.35449C21.5013 8.79198 21.3753 8.23646 21.1317 7.72947C20.888 7.22249 20.5328 6.77715 20.0928 6.42675Z" fill="#BA0B74"/>
</svg>
